<svg width="24" height="24" viewBox="0 0 24 24" fill="none" xmlns="http://www.w3.org/2000/svg">
  <path d="M7.21 9.89C10.25 7.04 15.15 7.04 18.19 9.89L18.55 10.23C18.71 10.37 18.71 10.61 18.55 10.75L17.43 11.82C17.35 11.89 17.23 11.89 17.15 11.82L16.65 11.35C14.56 9.38 10.84 9.38 8.75 11.35L8.21 11.85C8.13 11.92 8.01 11.92 7.93 11.85L6.81 10.78C6.65 10.64 6.65 10.4 6.81 10.26L7.21 9.89ZM20.79 12.35L21.79 13.3C21.95 13.44 21.95 13.68 21.79 13.82L16.97 18.36C16.81 18.5 16.57 18.5 16.42 18.36L13.08 15.2C13.04 15.17 12.98 15.17 12.94 15.2L9.6 18.36C9.44 18.5 9.2 18.5 9.05 18.36L4.21 13.8C4.05 13.66 4.05 13.42 4.21 13.28L5.21 12.33C5.37 12.19 5.61 12.19 5.76 12.33L9.1 15.49C9.14 15.52 9.2 15.52 9.24 15.49L12.58 12.33C12.74 12.19 12.98 12.19 13.13 12.33L16.47 15.49C16.51 15.52 16.57 15.52 16.61 15.49L19.95 12.33C20.11 12.19 20.35 12.19 20.5 12.33L20.79 12.35Z" fill="#3B99FC"/>
</svg> 